# AST/ASF file generated using VICON BodyLanguage
# -----------------------------------------------
:version 1.10
:name VICON
:units
  mass 1.0
  length 0.45
  angle deg
:documentation
   .ast/.asf automatically generated from VICON data using
   VICON BodyBuilder and BodyLanguage model FoxedUp or BRILLIANT.MOD
:root
   order TX TY TZ RX RY RZ
   axis XYZ
   position 0 0 0  
   orientation 0 0 0 
:bonedata
  begin
     id 1 
     name lhipjoint
     direction 0.575328 -0.747301 0.332475 
     length 2.40933 
     axis 0 0 0  XYZ
  end
  begin
     id 2 
     name lfemur
     direction 0.34202 -0.939693 0  
     length 7.31453  
     axis 0 0 20  XYZ
    dof rx ry rz
    limits (-160.0 20.0)
           (-70.0 70.0)
           (-60.0 70.0)
  end
  begin
     id 3 
     name ltibia
     direction 0.34202 -0.939693 0   
     length 7.82185   
     axis 0 0 20   XYZ
    dof rx
    limits (-10.0 170.0)
  end
  begin
     id 4 
     name lfoot
     direction 0.0795993 -0.218697 0.972541   
     length 2.19173   
     axis -90 7.62852e-016 20   XYZ
    dof rx rz
    limits (-45.0 90.0)
           (-70.0 20.0)
  end
  begin
     id 5 
     name ltoes
     direction 1.53537e-011 -4.21894e-011 1   
     length 1.10023   
     axis -90 7.62852e-016 20   XYZ
    dof rx
    limits (-90.0 20.0)
  end
  begin
     id 6 
     name rhipjoint
     direction -0.513884 -0.783789 0.348708   
     length 2.29716  
     axis 0 0 0  XYZ 
  end
  begin
     id 7 
     name rfemur
     direction -0.34202 -0.939693 0   
     length 7.59573   
     axis 0 0 -20   XYZ
    dof rx ry rz
    limits (-160.0 20.0)
           (-70.0 70.0)
           (-70.0 60.0)
  end
  begin
     id 8 
     name rtibia
     direction -0.34202 -0.939693 0   
     length 7.66402   
     axis 0 0 -20   XYZ
    dof rx
    limits (-10.0 170.0)
 end
 begin
     id 9 
     name rfoot
     direction -0.137793 -0.378584 0.915253   
     length 2.27056  
     axis -90 -7.62852e-016 -20   XYZ
    dof rx rz
    limits (-45.0 90.0)
           (-20.0 70.0)
  end
  begin
     id 10 
     name rtoes
     direction -1.53493e-011 -4.22159e-011 1   
     length 1.11766   
     axis -90 -7.62852e-016 -20   XYZ
    dof rx
    limits (-90.0 20.0)
  end
  begin
     id 11 
     name lowerback
     direction -0.00732775 0.998356 -0.05685   
     length 2.16513   
     axis 0 0 0   XYZ
    dof rx ry rz
    limits (-20.0 45.0)
           (-30.0 30.0)
           (-30.0 30.0)
  end
  begin
     id 12 
     name upperback
     direction 0.0218081 0.999627 -0.0164647   
     length 2.16755   
     axis 0 0 0   XYZ
    dof rx ry rz
    limits (-20.0 45.0)
           (-30.0 30.0)
           (-30.0 30.0)
  end
  begin
     id 13 
     name thorax
     direction 0.02365 0.999661 0.0108914   
     length 2.16932   
     axis 0 0 0   XYZ
    dof rx ry rz
    limits (-20.0 45.0)
           (-30.0 30.0)
           (-30.0 30.0)
  end
  begin
     id 14 
     name lowerneck
     direction -0.0523929 0.978385 0.200044   
     length 1.63877   
     axis 0 0 0   XYZ
    dof rx ry rz
    limits (-20.0 45.0)
           (-30.0 30.0)
           (-30.0 30.0)
  end
  begin
     id 15 
     name upperneck
     direction 0.0448674 0.981321 -0.187074   
     length 1.69014   
     axis 0 0 0   XYZ
    dof rx ry rz
    limits (-20.0 45.0)
           (-30.0 30.0)
           (-30.0 30.0)
  end
  begin
     id 16
     name head
     direction 0.0199089 0.996118 -0.0857429  
     length 1.70094  
     axis 0 0 0   XYZ
    dof rx ry rz
    limits (-20.0 45.0)
           (-30.0 30.0)
           (-30.0 30.0)
  end
  begin
     id 17 
     name lclavicle
     direction 0.940366 0.30191 -0.156722  
     length 3.37521  
     axis 0 0 0   XYZ
    dof ry rz
    limits (-20.0 10.0)
           (0.0 20.0)
  end
  begin
     id 18 
     name lhumerus
     direction 1 -4.4897e-011 -1.7911e-027   
     length 5.25287   
     axis 180 -30 -90   XYZ
    dof rx ry rz
    limits (-60.0 90.0)
           (-90.0 90.0)
           (-90.0 90.0)
  end
  begin
     id 19
     name lradius
     direction 1 -4.48951e-011 1.04424e-027   
     length 3.51014   
     axis 180 -30 -90   XYZ
    dof rx
    limits (-10.0 170.0)
  end
  begin
     id 20
     name lwrist
     direction 1 -4.48997e-011 -9.5942e-028   
     length 1.75507   
     axis 8.48502e-016 90 90   XYZ
    dof ry
    limits (-180.0 0.0)
 end
  begin
     id 21 
     name lhand
     direction 1 -4.48831e-011 -1.90777e-027   
     length 0.706179   
     axis 1.22306e-015 90 90   XYZ
    dof rx rz
    limits (-90.0 90.0)
           (-45.0 45.0)
  end
  begin
     id 22 
     name lfingers
     direction 1 -4.49108e-011 -3.85244e-027   
     length 0.569339   
     axis 2.44611e-015 90 90   XYZ
    dof rx
    limits (0.0 90.0)
  end
  begin
     id 23
     name lthumb
     direction 0.707107 -6.34953e-011 0.707107   
     length 0.817461   
     axis -90 45 -1.62303e-014   XYZ
    dof rx rz
    limits (-45.0 45.0)
           (-45.0 45.0)
  end
  begin
     id 24 
     name rclavicle
     direction -0.905329 0.382405 -0.184787   
     length 3.30787  
     axis 0 0 0   XYZ 
    dof ry rz
    limits (-10.0 20.0)
           (-20.0 0.0)
  end
  begin
     id 25 
     name rhumerus
     direction -1 -4.48953e-011 -9.15316e-029  
     length 5.28721   
     axis 180 30 90   XYZ
    dof rx ry rz
    limits (-90.0 60.0)
           (-90.0 90.0)
           (-90.0 90.0)
  end
  begin
     id 26 
     name rradius
     direction -1 -4.48987e-011 9.37824e-028   
     length 3.50544   
     axis 180 30 90   XYZ
    dof rx
    limits (-10.0 170.0)
  end
  begin
     id 27 
     name rwrist
     direction -1 -4.48967e-011 -9.58414e-028   
     length 1.75272   
     axis 8.48502e-016 -90 -90   XYZ
    dof ry
    limits (-180.0 0.0)
  end
  begin
     id 28
     name rhand
     direction -1 -4.48904e-011 -1.91266e-027   
     length 0.884996   
     axis 1.22306e-015 -90 -90   XYZ
    dof rx rz
    limits (-90.0 90.0)
           (-45.0 45.0)
  end
  begin
     id 29
     name rfingers
     direction -1 -4.4909e-011 -3.85015e-027   
     length 0.713507   
     axis 2.44611e-015 -90 -90   XYZ
    dof rx
    limits (0.0 90.0)
  end
  begin
     id 30
     name rthumb
     direction -0.707107 -6.34853e-011 0.707107   
     length 1.02446   
     axis -90 -45 1.62303e-014   XYZ
    dof rx rz
    limits (-45.0 45.0)
           (-45.0 45.0)
  end
:hierarchy
  begin
    root lhipjoint rhipjoint lowerback
    lhipjoint lfemur
    lfemur ltibia
    ltibia lfoot
    lfoot ltoes
    rhipjoint rfemur
    rfemur rtibia
    rtibia rfoot
    rfoot rtoes
    lowerback upperback
    upperback thorax
    thorax lowerneck lclavicle rclavicle
    lowerneck upperneck
    upperneck head
    lclavicle lhumerus
    lhumerus lradius
    lradius lwrist
    lwrist lhand lthumb
    lhand lfingers
    rclavicle rhumerus
    rhumerus rradius
    rradius rwrist
    rwrist rhand rthumb
    rhand rfingers
  end

#!OML:ASF F:\twosubjects\two\Thursday\Session 1\justin.ASF
:FULLY-SPECIFIED
:DEGREES
49
root 14.4429 17.786 11.8598 12.9769 -63.839 -1.55744
lowerback 15.0999 -0.322087 -3.04968
upperback 7.91909 -1.07778 3.11583
thorax 0.0497331 -0.829719 5.1622
lowerneck -7.79403 -13.8794 -14.2648
upperneck 1.1252 -19.3526 26.258
head 5.88252 -9.07671 8.65618
rclavicle -3.37934e-015 -8.74653e-015
rhumerus -52.2416 -7.35972 -39.268
rradius 26.8889
rwrist 33.2964
rhand -25.4738 -0.562589
rfingers 7.12502
rthumb 1.05401 -30.5397
lclavicle -3.37934e-015 -8.74653e-015
lhumerus -18.9187 8.78173 39.1024
lradius 42.6212
lwrist -5.95198
lhand -7.57548 33.3686
lfingers 7.12502
lthumb 18.3173 62.5262
rfemur -32.1311 -4.91079 15.3284
rtibia 44.0523
rfoot -20.5018 -11.3236
rtoes -24.3845
lfemur -33.3902 7.55134 -3.58211
ltibia 45.4746
lfoot -9.40319 3.36922
ltoes -21.5178
50
root 14.4282 17.795 11.7924 12.4356 -63.5395 -0.673206
lowerback 15.3236 -0.408032 -3.20072
upperback 7.84163 -1.21008 2.94388
thorax -0.136491 -0.887776 5.09216
lowerneck -8.38079 -13.2738 -13.6642
upperneck 0.999813 -18.4036 25.6574
head 5.61453 -8.5958 8.50071
rclavicle 2.5842e-015 1.51076e-014
rhumerus -52.8311 -7.59283 -39.7813
rradius 26.8372
rwrist 30.9803
rhand -24.8755 0.0151604
rfingers 7.12502
rthumb 1.63183 -29.9583
lclavicle 2.5842e-015 1.51076e-014
lhumerus -19.1471 7.75245 38.8991
lradius 43.0284
lwrist -5.49807
lhand -7.53757 33.3033
lfingers 7.12502
lthumb 18.3537 62.4574
rfemur -32.5075 -5.23533 15.1803
rtibia 44.2101
rfoot -20.6826 -11.1221
rtoes -24.3169
lfemur -33.8443 7.6216 -4.45496
ltibia 45.6223
lfoot -10.3974 2.28234
ltoes -20.6124
51
root 14.4161 17.8018 11.7359 11.3689 -63.2471 0.90611
lowerback 15.394 -0.42582 -3.49084
upperback 7.79598 -1.26994 2.69268
thorax -0.214424 -0.914248 5.00232
lowerneck -8.99004 -12.7267 -13.2748
upperneck 0.755742 -17.5318 25.294
head 5.39264 -8.15371 8.43648
rclavicle -2.82274e-014 -1.70955e-014
rhumerus -53.568 -8.22207 -40.0702
rradius 26.6214
rwrist 29.9631
rhand -24.4003 -0.450744
rfingers 7.12502
rthumb 2.09074 -30.4202
lclavicle -2.82274e-014 -1.70955e-014
lhumerus -19.001 7.41773 38.9671
lradius 43.1686
lwrist -5.88788
lhand -7.68606 33.1554
lfingers 7.12502
lthumb 18.2109 62.3229
rfemur -33.026 -5.72533 14.6649
rtibia 44.4655
rfoot -20.8013 -10.8829
rtoes -24.4942
lfemur -34.3552 7.67826 -5.825
ltibia 45.656
lfoot -11.5287 1.20422
ltoes -19.3722
52
root 14.4033 17.8027 11.6847 10.8614 -63.0157 1.8816
lowerback 15.3874 -0.389469 -3.68915
upperback 7.80159 -1.2469 2.61559
thorax -0.203865 -0.905691 5.03002
lowerneck -9.69018 -12.1794 -12.9486
upperneck 0.534594 -16.6444 24.8294
head 5.19097 -7.69851 8.34241
rclavicle 2.76311e-014 -1.07344e-014
rhumerus -54.6466 -8.94169 -40.2737
rradius 26.8856
rwrist 29.77
rhand -25.0842 -1.23357
rfingers 7.12502
rthumb 1.43025 -31.2085
lclavicle 2.76311e-014 -1.07344e-014
lhumerus -18.8048 7.71942 39.3018
lradius 43.1802
lwrist -6.71801
lhand -7.87505 33.0512
lfingers 7.12502
lthumb 18.0291 62.2355
rfemur -33.5647 -6.07586 14.4034
rtibia 44.7173
rfoot -20.9454 -10.5347
rtoes -23.8822
lfemur -34.8261 7.99846 -6.99502
ltibia 45.6921
lfoot -12.5923 -0.0230808
ltoes -21.7965
53
root 14.3823 17.8097 11.6298 9.94182 -62.8543 3.11991
lowerback 15.5569 -0.409177 -4.33976
upperback 7.79819 -1.36412 2.5717
thorax -0.26247 -0.979486 5.37833
lowerneck -10.3446 -11.5063 -12.6943
upperneck 0.516126 -15.6248 24.355
head 5.02887 -7.17247 8.27674
rclavicle -3.97569e-015 1.19271e-015
rhumerus -55.412 -9.08382 -40.7184
rradius 27.1594
rwrist 29.4233
rhand -26.2344 -1.04087
rfingers 7.12502
rthumb 0.319363 -31.0204
lclavicle -3.97569e-015 1.19271e-015
lhumerus -19.1224 7.79004 39.4057
lradius 43.3839
lwrist -7.09427
lhand -8.21757 33.4341
lfingers 7.12502
lthumb 17.6995 62.6486
rfemur -33.8324 -6.12257 13.9025
rtibia 44.9568
rfoot -21.4198 -10.0631
rtoes -21.3187
lfemur -35.0345 8.39486 -8.27146
ltibia 45.7182
lfoot -13.6403 -1.73913
ltoes -24.0082
54
root 14.3598 17.816 11.5791 11.9172 -62.916 1.31522
lowerback 15.493 -0.338828 -3.64086
upperback 7.79264 -1.17434 2.85464
thorax -0.271465 -0.872266 5.24947
lowerneck -11.0765 -11.0027 -12.634
upperneck 0.527838 -14.8364 24.0269
head 4.96994 -6.74969 8.24832
rclavicle 2.0276e-014 -3.69739e-014
rhumerus -55.8654 -9.34959 -40.847
rradius 26.8032
rwrist 29.2579
rhand -26.4375 -0.393313
rfingers 7.12502
rthumb 0.12315 -30.373
lclavicle 2.0276e-014 -3.69739e-014
lhumerus -19.2158 7.67414 39.5858
lradius 43.5972
lwrist -7.22532
lhand -8.63822 33.6511
lfingers 7.12502
lthumb 17.2947 62.9016
rfemur -34.2974 -5.50738 14.9261
rtibia 45.1824
rfoot -21.8681 -10.0492
rtoes -19.3236
lfemur -35.3503 9.3123 -8.0578
ltibia 45.7424
lfoot -14.6784 -3.90003
ltoes -24.2192
55
root 14.3346 17.8092 11.5263 13.7748 -62.7369 -0.411486
lowerback 15.3744 -0.282063 -2.88433
upperback 7.84155 -0.998165 3.09918
thorax -0.191018 -0.773268 5.04629
lowerneck -11.7506 -10.5402 -12.3285
upperneck 0.458059 -14.1199 23.5754
head 4.86199 -6.37346 8.12853
rclavicle -1.145e-013 1.47101e-014
rhumerus -56.3271 -9.93432 -40.9186
rradius 26.2399
rwrist 29.1663
rhand -26.5187 -0.0943806
rfingers 7.12502
rthumb 0.0447388 -30.0741
lclavicle -1.145e-013 1.47101e-014
lhumerus -19.0399 7.98672 39.7993
lradius 43.6231
lwrist -7.82284
lhand -8.82763 33.2082
lfingers 7.12502
lthumb 17.1124 62.4746
rfemur -34.7326 -5.25621 16.035
rtibia 45.4044
rfoot -22.0229 -10.2488
rtoes -19.6237
lfemur -35.7448 10.0981 -7.91139
ltibia 45.8355
lfoot -15.6892 -6.13833
ltoes -22.7007
56
root 14.3092 17.7946 11.4756 11.6065 -62.4964 2.03775
lowerback 15.5692 -0.333883 -3.85239
upperback 7.84792 -1.19919 2.80211
thorax -0.24481 -0.891294 5.31973
lowerneck -12.0111 -9.86983 -12.1284
upperneck 0.303858 -13.1313 23.1911
head 4.62944 -5.89353 8.10271
rclavicle -1.47101e-014 -1.35174e-014
rhumerus -56.9565 -10.2338 -41.3032
rradius 26.0235
rwrist 28.8153
rhand -26.7733 -0.240064
rfingers 7.12502
rthumb -0.201095 -30.2197
lclavicle -1.47101e-014 -1.35174e-014
lhumerus -19.2388 8.04919 39.7887
lradius 43.7342
lwrist -8.24682
lhand -9.09661 33.0715
lfingers 7.12502
lthumb 16.8534 62.3602
rfemur -34.8527 -5.76607 15.0534
rtibia 45.6299
rfoot -22.1196 -10.2046
rtoes -20.781
lfemur -35.8325 10.328 -9.92812
ltibia 45.8825
lfoot -16.7083 -8.04996
ltoes -22.3838
57
root 14.2959 17.7753 11.4385 12.8731 -62.1109 0.99186
lowerback 15.6841 -0.455822 -2.97138
upperback 7.66643 -1.23181 2.93178
thorax -0.51704 -0.872676 4.96443
lowerneck -12.2468 -9.39478 -12.4381
upperneck 0.280987 -12.3777 22.9848
head 4.52805 -5.51686 8.18538
rclavicle 1.70955e-014 -2.62396e-014
rhumerus -58.1415 -10.7089 -41.2425
rradius 26.2508
rwrist 28.7844
rhand -26.5497 -0.290521
rfingers 7.12502
rthumb 0.0148729 -30.2703
lclavicle 1.70955e-014 -2.62396e-014
lhumerus -19.3736 7.40915 39.9247
lradius 43.8897
lwrist -8.11542
lhand -9.39546 33.3405
lfingers 7.12502
lthumb 16.5657 62.6534
rfemur -35.3219 -5.78959 15.8211
rtibia 45.8451
rfoot -22.2177 -10.4992
rtoes -21.5508
lfemur -36.3666 10.943 -10.2083
ltibia 46.0153
lfoot -17.4355 -10.0554
ltoes -23.3769
58
root 14.2613 17.7751 11.3862 14.0378 -61.7558 -0.309596
lowerback 15.9401 -0.462953 -2.55488
upperback 7.70061 -1.1884 3.28091
thorax -0.620871 -0.849432 5.09841
lowerneck -13.0647 -8.94796 -12.3355
upperneck 0.593555 -11.6951 22.3863
head 4.57561 -5.1352 8.0361
rclavicle -5.56597e-014 9.54166e-015
rhumerus -59.129 -11.4246 -40.9099
rradius 26.5059
rwrist 29.0943
rhand -26.1351 0.0589383
rfingers 7.12502
rthumb 0.415269 -29.9204
lclavicle -5.56597e-014 9.54166e-015
lhumerus -19.4498 7.30309 40.1875
lradius 43.8899
lwrist -8.22497
lhand -9.76063 33.5416
lfingers 7.12502
lthumb 16.2141 62.8836
rfemur -35.3434 -5.46787 16.6852
rtibia 46.0256
rfoot -22.4109 -10.9453
rtoes -21.6959
lfemur -36.453 11.669 -10.2376
ltibia 46.0563
lfoot -17.9211 -12.0986
ltoes -22.8213
59
root 14.2446 17.7731 11.3576 13.9027 -61.7293 0.216149
lowerback 15.823 -0.551244 -2.8341
upperback 7.7131 -1.33966 3.26552
thorax -0.521629 -0.933472 5.26204
lowerneck -13.9225 -8.23834 -11.4919
upperneck 0.820127 -10.7297 21.4073
head 4.48822 -4.63211 7.66935
rclavicle -1.59028e-015 3.81667e-014
rhumerus -59.5746 -12.0742 -40.9796
rradius 26.4167
rwrist 29.4497
rhand -26.3534 0.580233
rfingers 7.12502
rthumb 0.204425 -29.3994
lclavicle -1.59028e-015 3.81667e-014
lhumerus -19.7865 7.8636 40.1698
lradius 43.8135
lwrist -8.69653
lhand -10.3433 33.6319
lfingers 7.12502
lthumb 15.653 63.0186
rfemur -35.7789 -5.57958 16.5836
rtibia 46.1516
rfoot -22.4404 -10.9754
rtoes -21.7369
lfemur -36.8145 12.2415 -11.3865
ltibia 46.1352
lfoot -18.3035 -13.7752
ltoes -20.7669
60
root 14.226 17.7654 11.3321 14.1778 -61.7081 0.383019
lowerback 15.5848 -0.672089 -2.8878
upperback 7.61418 -1.49288 3.25276
thorax -0.48289 -1.00644 5.29669
lowerneck -14.2803 -7.53822 -10.7411
upperneck 0.795528 -9.77862 20.4695
head 4.27232 -4.17643 7.34042
rclavicle 2.5842e-015 1.98785e-015
rhumerus -59.9901 -12.2235 -41.3858
rradius 26.1422
rwrist 29.4748
rhand -26.7202 0.894004
rfingers 7.12502
rthumb -0.149829 -29.0857
lclavicle 2.5842e-015 1.98785e-015
lhumerus -20.2795 7.96795 39.9718
lradius 43.7751
lwrist -8.8893
lhand -10.691 33.5533
lfingers 7.12502
lthumb 15.3181 62.966
rfemur -36.304 -5.53424 16.639
rtibia 46.2694
rfoot -22.4894 -11.0881
rtoes -21.346
lfemur -37.1383 12.7526 -12.3374
ltibia 46.1121
lfoot -18.5807 -15.1093
ltoes -18.7233
61
root 14.205 17.7622 11.3107 14.8761 -61.7544 -0.108004
lowerback 15.5011 -0.692671 -2.64056
upperback 7.56256 -1.48101 3.41041
thorax -0.497491 -0.995722 5.31954
lowerneck -14.6323 -7.03925 -10.5172
upperneck 0.793584 -9.04016 19.7525
head 4.15129 -3.81866 7.14664
rclavicle -1.98785e-014 8.74653e-015
rhumerus -60.4873 -12.167 -41.676
rradius 25.9489
rwrist 29.3467
rhand -26.1716 1.00638
rfingers 7.12502
rthumb 0.380021 -28.973
lclavicle -1.98785e-014 8.74653e-015
lhumerus -20.5638 7.84633 40.0196
lradius 43.6306
lwrist -8.89466
lhand -10.9322 33.2567
lfingers 7.12502
lthumb 15.0858 62.687
rfemur -36.6627 -5.33407 16.9953
rtibia 46.4517
rfoot -22.6016 -11.1997
rtoes -20.2417
lfemur -37.1429 13.327 -12.9206
ltibia 45.9931
lfoot -19.2065 -15.5781
ltoes -18.2249
62
root 14.188 17.7641 11.2943 14.9494 -61.8349 0.104751
lowerback 15.4037 -0.668177 -2.4709
upperback 7.57792 -1.42605 3.36668
thorax -0.442983 -0.964109 5.16371
lowerneck -15.1078 -6.55314 -10.1852
upperneck 0.742877 -8.34298 19.1457
head 4.05261 -3.47493 6.96225
rclavicle 2.82274e-014 -2.18663e-014
rhumerus -61.1657 -12.5101 -41.9416
rradius 25.8427
rwrist 29.1172
rhand -25.4467 1.15883
rfingers 7.12502
rthumb 1.08011 -28.8182
lclavicle 2.82274e-014 -2.18663e-014
lhumerus -20.4803 7.9302 40.1076
lradius 43.3919
lwrist -9.21742
lhand -11.1758 33.0863
lfingers 7.12502
lthumb 14.8511 62.5341
rfemur -37.0435 -5.28438 16.971
rtibia 46.6581
rfoot -22.6763 -11.1921
rtoes -18.1951
lfemur -37.0923 13.649 -13.8135
ltibia 45.8284
lfoot -19.7633 -15.31
ltoes -16.3514
